<svg width="52" height="42" viewBox="0 0 52 42" fill="none" xmlns="http://www.w3.org/2000/svg">
<path d="M33.7676 41.9864H33.3415C28.2281 41.9864 23.1146 41.9864 18.0011 41.9864C17.3619 41.9864 16.9358 41.7734 16.7228 41.3473C11.3962 34.5293 5.85665 27.9244 0.530125 21.1065C0.317064 20.6803 0.104004 20.4673 0.104004 20.0412C0.104004 13.4363 0.104004 7.04444 0.104004 0.439549C0.104004 0.226488 0.104004 0.0134277 0.317065 0.0134277H0.530125C11.6093 13.8624 22.6885 27.7114 33.5546 41.5603C33.5546 41.5603 33.5546 41.7734 33.7676 41.7734V41.9864Z" fill="#545454"/>
<path d="M50.8125 21.1065C49.3211 23.024 47.6166 24.9416 46.1251 27.0722C45.699 27.4983 45.2729 27.7114 44.8468 27.7114C39.7333 27.7114 34.6199 27.7114 29.7195 27.7114H29.5064C29.2933 27.7114 29.0803 27.4983 29.2933 27.2852C29.2933 27.2852 29.2933 27.0722 29.5064 27.0722C34.6199 20.6803 39.5203 14.5016 44.6337 8.10975C46.7643 5.55301 48.8949 2.78322 50.8125 0.226489C50.8125 0.0134275 51.0255 0.0134277 51.2386 0.0134277H51.4517C51.4517 0.226489 51.4517 0.226488 51.4517 0.439549C51.4517 6.83138 51.4517 13.4363 51.4517 19.8281C51.2386 20.4673 51.0255 20.8934 50.8125 21.1065Z" fill="#545454"/>
</svg>
