<svg width="50" height="48" viewBox="0 0 50 48" fill="none" xmlns="http://www.w3.org/2000/svg">
<path d="M23.4971 16.8623C23.4971 16.8623 24.7402 16.9564 25.7921 18.271L25.2183 18.3651L24.9314 18.271C24.9314 18.271 24.0709 17.238 23.4971 16.8623ZM21.5846 22.6852L21.0109 21.2764H20.8196L19.8634 22.4034C20.5328 22.9669 21.5846 22.6852 21.5846 22.6852ZM30.382 14.4205L29.9039 14.6082L30.4776 15.6413L32.3901 16.2988C31.6251 14.7022 30.382 14.4205 30.382 14.4205ZM24.9315 16.3928C25.5052 17.0501 26.079 17.9893 26.079 17.9893C27.0352 17.0502 29.0433 16.6745 31.6251 16.7684C27.9915 16.0171 24.9315 16.3928 24.9315 16.3928ZM21.3934 14.984C21.3934 14.984 22.4452 14.984 23.8796 15.2658C22.9234 14.6084 21.3934 14.2327 21.3934 14.2327V14.984ZM30.1908 20.1494L28.5652 21.5582L29.8083 21.9338L31.0514 20.619L30.382 20.3371L30.1908 20.1494ZM19.3853 12.73C19.3853 12.73 20.0547 13.1057 20.1503 13.1057C20.2459 13.1057 21.5846 13.5753 22.1584 13.7631C22.6365 13.9508 22.9233 13.7631 23.019 13.7631C23.1146 13.7631 24.7402 12.8239 24.7402 12.8239C23.3058 12.2604 21.9671 11.8847 21.9671 11.8847C21.8715 11.8847 19.3853 12.73 19.3853 12.73ZM29.1389 13.5753C29.0433 13.3875 28.8521 13.3875 27.7046 13.1995C26.6527 13.1059 25.6964 13.0118 25.5052 13.0118C25.3139 13.0118 25.2184 13.1059 25.2184 13.1059C25.2184 13.1059 24.6446 13.4815 24.1665 13.7632C23.6884 14.0451 23.5927 14.1389 23.4971 14.3267C23.4015 14.4208 23.6884 14.7963 23.6884 14.7963L24.4534 15.7355C24.549 15.7355 24.8359 15.9233 24.8359 15.9233C24.8359 15.9233 26.3659 15.8292 27.3221 15.7355H29.8083C29.9039 15.7355 29.8083 15.3599 29.617 14.8902C29.4258 14.5146 29.1389 13.5753 29.1389 13.5753ZM20.0547 14.6083C20.0547 14.6083 20.1503 14.6083 20.3415 14.7024C20.5328 14.7024 20.6283 14.5146 20.6283 14.3267C20.6283 14.0449 20.3415 13.9511 20.3415 13.9511H20.1502L19.8634 14.0451L19.7677 14.7025H19.8634L20.0547 14.6083C19.959 14.4205 19.959 14.3266 19.959 14.1389C19.959 14.0448 20.1503 13.8571 20.2459 13.8571C20.2459 13.8571 20.4371 13.8571 20.3415 14.2327C20.3415 14.6084 20.0547 14.6083 20.0547 14.6083ZM36.2151 22.0277L35.4501 23.0608V23.1549H36.502C36.6932 22.4975 36.2151 22.0277 36.2151 22.0277ZM17.0903 17.144H16.899L16.4209 17.05C15.9428 16.9559 16.134 16.1108 16.134 16.1108L15.5603 16.2986C15.3691 15.9229 14.5084 14.8898 14.5084 14.8898L14.3172 15.6412C14.4128 15.7352 14.8909 16.4864 14.9866 16.6742L14.6997 16.9561C14.6997 16.9561 14.6041 17.1439 14.6041 17.2379C14.6041 17.332 14.5084 17.4257 14.5084 17.4257L14.126 17.6134H14.0303L12.6916 16.5803V17.3317H12.7872C12.8829 17.5195 13.0741 17.8952 13.5522 18.083C13.9347 18.2708 14.4128 18.2708 14.6041 18.1771C14.7953 18.2711 14.8909 18.2712 14.9866 18.3649C15.3691 18.5527 15.4647 18.4589 15.4647 18.4589L16.0384 18.2711H16.134L16.2297 18.1771L16.4209 17.8014C16.4209 17.8014 17.3772 17.8955 17.7597 17.8955C18.1422 17.332 19.3853 16.4867 20.2459 16.3928C21.1065 16.3928 22.5409 16.5806 23.6884 17.7076C24.7402 18.8346 24.4534 20.3373 24.4534 20.3373L26.5571 20.9947L25.6009 20.3373C24.8359 18.4589 23.019 16.7685 23.019 16.7685C23.019 16.7685 22.5409 16.6744 22.254 16.6744C21.9672 16.5803 21.7759 16.3926 21.7759 16.3926C21.7759 16.3926 21.6803 16.2985 21.489 16.0169L21.2978 15.6412C21.2978 15.6412 21.1065 15.4534 20.8196 15.2656C20.5327 15.0778 19.4809 14.9837 18.9071 14.8899C18.3334 14.7958 18.3334 14.8899 18.3334 14.8899C19.959 15.2656 20.4371 15.3595 20.5328 15.4534C20.5328 15.4534 20.6284 15.6412 20.724 15.7352C19.3853 15.4534 18.1422 15.6412 17.8553 15.7352C18.0466 16.0171 18.0466 16.3926 17.8553 16.6744C17.664 16.8621 17.0903 17.144 17.0903 17.144ZM35.2589 23.906L35.5458 25.127C35.5458 25.127 35.8326 24.8451 36.1195 24.4695C36.4064 24.0939 36.502 23.7182 36.502 23.7182L35.3545 23.8123L35.2589 23.906ZM12.2135 15.3597L12.1178 16.3928H12.6916L12.7872 15.7353V16.111H12.8829V15.5475H12.7872V15.1718L13.6478 15.6414L13.7435 15.8292L13.9347 16.017H14.126L14.2216 15.9229V15.8288C13.6478 15.8288 13.6478 15.547 13.6478 15.547C13.6478 15.547 13.7435 14.8896 13.8391 14.7017C13.9348 14.514 14.3172 14.6077 14.3172 14.6077L14.2216 14.5136H14.0303C13.8391 14.4196 13.2654 14.044 13.0741 13.9501V13.8561L13.1697 13.762V13.3863H13.2654C13.2654 13.2923 13.361 13.2923 13.361 13.1986C13.5523 13.1986 14.9866 12.9167 14.9866 12.9167L13.6479 12.6349V12.5412C13.2654 12.4471 12.9785 12.3534 12.7872 12.2593C12.3091 12.8229 12.1179 13.5742 12.1179 13.5742C12.1179 13.5742 12.0223 14.889 12.0223 15.0768C11.9266 15.2646 12.2135 15.3587 12.2135 15.3587L12.2135 15.3597ZM34.6851 22.779L34.8764 23.0609L34.972 22.9668L35.737 22.0277V21.9336C35.3545 21.9336 34.6851 22.779 34.6851 22.779ZM32.3901 21.0886L31.8164 20.9007L30.4776 22.4034L31.4339 22.6853C31.6252 21.9339 32.3901 21.0886 32.3901 21.0886ZM34.3983 23.2486C33.9201 24.1878 34.0158 24.8452 34.0158 24.8452L34.4939 23.8122V23.6244C34.5895 23.6244 34.4939 23.4365 34.3983 23.2486ZM33.9201 17.144C33.9201 17.144 33.7289 17.5198 33.6332 17.6137C33.5376 17.7077 32.8682 17.8014 32.4857 17.8955C32.1032 18.0833 31.4339 18.3651 31.2426 18.5529C31.147 18.647 31.147 18.9286 31.147 19.0225C31.147 19.0225 31.3383 19.1166 31.4339 19.1166L30.5733 19.8679L30.7645 20.0557L32.8682 20.7131C33.3463 20.3375 34.0157 20.2435 34.0157 20.2435C33.6332 20.0557 32.0076 19.3983 31.5295 19.2105C31.5295 19.2105 31.2426 19.1164 31.2426 19.0227V18.7408C31.2426 18.7408 32.4857 17.8017 34.3982 17.8017L34.6852 17.2381L33.9201 17.144ZM35.1633 25.4087L34.7808 24.2817H34.6851L34.1114 25.3148L34.207 25.4089C34.6852 25.5966 35.1633 25.4087 35.1633 25.4087ZM20.724 14.7022L21.0109 14.7963C21.0109 14.7963 21.2021 14.7963 21.2021 14.6085V14.2329L20.9153 14.0451L20.5328 13.9511C20.6284 14.0451 20.6284 14.1388 20.6284 14.1388H20.724C20.724 14.0448 20.8196 14.0448 20.8196 14.1388C20.8196 14.1388 21.0109 14.2329 20.9153 14.5145C21.0109 14.6085 20.8196 14.7022 20.724 14.7022ZM19.8634 19.8677C19.194 21.0886 19.6721 21.9338 19.6721 21.9338L20.5328 20.7129V20.5251L19.8634 19.8677ZM13.6478 12.6361L14.7953 12.9179C14.8909 12.9179 15.5603 12.8238 15.5603 12.8238L13.7435 12.3543L13.6478 12.6361ZM14.3172 12.3542C15.8472 12.542 16.134 12.8238 16.134 12.8238C16.134 12.8238 16.7078 12.7297 16.9946 12.7297C16.5165 12.3541 14.4128 11.6966 14.4128 11.6966C14.4128 11.6966 14.3172 11.9786 14.3172 12.3542ZM16.6122 15.2656C16.3253 15.4534 16.0384 16.017 16.134 16.4866C16.2297 16.9561 16.3253 16.9561 16.6122 16.9561C16.134 16.7684 16.2297 16.017 16.6122 15.5474C16.899 15.1717 17.1859 15.4533 17.1859 15.4533C17.1859 15.4533 16.8991 15.0777 16.6122 15.2656ZM9.82284 29.1652C8.57974 29.1652 7.14537 29.6349 8.00603 30.9497C15.0822 42.8769 22.5409 45.6945 25.6965 47.197C27.1308 46.54 29.4258 45.5069 32.1989 43.6284C33.8245 42.5953 33.6333 40.9988 33.2508 39.9657C31.2426 35.082 20.2459 29.5409 9.82284 29.1652ZM49.698 6.90709C46.8292 4.93481 39.7531 1.36597 25.6965 1.36597C20.8196 1.36597 16.7078 1.83558 13.4566 2.49296C14.2216 3.71391 14.6041 5.12267 14.6041 6.62533C14.6041 8.69146 13.8391 10.5698 12.596 11.9785C12.8828 12.0723 13.2654 12.1664 13.7435 12.2604L13.9347 11.7908C13.9347 11.7908 14.126 11.7908 14.2216 11.8849C14.2216 11.4153 14.5084 11.4153 14.5084 11.4153C14.5084 11.4153 14.5084 11.3213 14.6041 11.3213C15.0822 11.4153 16.4209 12.0725 16.9946 12.3544C17.5684 12.6362 17.5684 12.73 17.5684 12.73C17.5684 12.73 18.9071 12.73 19.2896 12.6359C19.6721 12.6359 20.3415 12.3541 21.2978 12.0724C22.254 11.7906 22.4452 11.6967 22.6365 11.6967C22.8277 11.6967 24.5489 11.7908 26.0789 11.9785C27.6089 12.1664 29.0433 12.7299 29.3302 12.9177L29.8083 13.0118L29.9039 12.7299L29.1389 12.4481C29.1389 12.4481 29.2346 11.9785 29.2346 11.8846C29.2346 11.7906 29.3302 11.6968 29.4258 11.6968C29.5214 11.6968 30.382 11.8846 30.6689 11.9787C30.9558 12.0724 31.912 12.73 32.0076 12.73C32.1033 12.73 32.1033 12.8241 32.1033 12.8241C32.1033 13.0118 31.912 13.3875 31.912 13.3875C31.912 13.3875 32.1989 13.4816 32.2945 13.5753C32.3901 13.6694 32.677 13.8572 32.9639 14.1388C33.2507 14.3266 33.1552 14.6084 33.1552 14.6084L33.8245 15.2658V15.5477L35.4501 17.1442V17.2383L34.6852 17.7078C34.6852 17.7078 35.737 17.6138 36.502 17.9897C37.2671 18.3654 37.3628 18.5532 37.3628 18.741C37.1713 18.8351 36.8845 18.9288 36.8845 18.9288C36.3107 19.1166 34.8764 20.0558 34.8764 20.0558V20.1499L35.6414 20.3376C36.502 19.5863 38.0318 19.3046 39.1793 19.4924C43.1 20.2437 45.7774 22.7795 46.3511 24.9396C46.3511 25.0336 46.4469 25.2214 46.4469 25.3152C50.3675 16.2992 49.9852 9.81902 49.698 6.9076V6.90709ZM35.9282 20.6188C36.0239 20.7129 36.1195 20.7129 36.2151 20.8066C36.7889 21.1823 37.0756 21.3701 37.1713 22.2154C37.2671 22.8728 37.0756 23.812 36.5976 24.6572C39.275 26.4416 43.0042 25.0328 44.4389 26.4416C44.1518 22.8728 38.7969 19.304 35.9282 20.6188ZM13.9347 16.017L13.7435 16.111V16.8624L13.9347 16.7683L13.9347 16.017ZM41.5701 27.6626C39.5621 27.6626 37.5537 27.0052 36.1195 25.3147V25.4088C35.2589 26.5358 34.3026 26.5358 33.9201 26.5358C33.5376 26.5358 32.2945 25.9723 31.8164 25.4088C31.3383 24.8453 31.3383 23.8122 31.3383 23.8122L29.4258 23.1547L27.0352 21.8399L26.6527 21.7458C25.8877 22.1216 24.9315 21.8399 24.0708 21.1824C23.9752 21.558 23.4971 22.4972 22.9234 22.9668C22.3496 23.4364 21.2021 24.0938 20.3415 24.0938C19.4809 24.0938 17.5684 23.1546 16.9946 21.8398C16.4209 20.5249 16.9946 19.1162 16.9946 19.1162L16.0384 18.9284L15.6559 18.4589C15.6559 18.4589 14.5084 19.398 13.2654 19.0224C12.0222 18.6467 10.9704 17.6136 10.6835 16.6744C10.4922 15.7353 10.7791 14.89 10.8748 14.7962C10.6835 14.1387 10.6835 13.763 10.6835 13.763H10.5878V13.4812C9.34474 14.3264 7.91036 14.7021 6.38038 14.7021C4.65918 14.7021 3.03354 14.1386 1.69482 13.2934C1.8861 15.3595 2.45982 17.8013 3.22481 20.5249C4.27668 24.2816 7.71914 25.5025 12.8828 26.3477C24.2621 28.1322 35.1632 36.6786 34.3982 41.9378C37.2671 39.5902 40.3268 36.1151 43.3871 30.9496C44.6298 28.9774 43.4823 27.6626 41.5701 27.6626ZM11.1616 14.7022L11.066 15.7352H11.7353V15.6412H11.6397V15.5471H11.5441L11.6397 15.3593L11.7353 14.8897L11.6397 14.7956V14.6079L11.7353 14.5138L11.831 13.3868L11.3529 13.105C11.5441 12.3536 12.0222 11.6962 12.0222 11.6962H11.7354C11.2573 12.2597 11.066 13.011 11.066 13.011C11.066 13.011 10.9704 14.232 10.9704 14.4198C10.9704 14.7016 11.1616 14.7016 11.1616 14.7016L11.1616 14.7022ZM21.6803 20.9946L22.1584 22.4972C23.1146 21.8398 23.3058 20.8067 23.3058 20.8067L21.7759 20.9007L21.6803 20.9946ZM22.5409 18.6466L21.7759 19.9614L21.8715 20.0555L23.4015 20.1496C23.4015 19.1165 22.5409 18.6466 22.5409 18.6466ZM12.9785 15.7352L12.8828 16.2987H12.9785V15.7352ZM20.2459 19.304L21.0109 19.8676L21.2021 19.7735L22.0627 18.4586C21.0109 18.3646 20.2459 19.304 20.2459 19.304ZM13.1697 15.8292L13.0741 15.7351V16.3925H13.1697V15.8292ZM13.4566 16.0169L13.3609 16.6743H13.4566V16.0169ZM13.6478 16.111L13.5522 16.7684H13.6478V16.111ZM13.2653 15.9232L13.1697 16.5806H13.2653V15.9232Z" fill="#545454"/>
<path d="M6.38036 12.4484C9.65467 12.4484 12.309 9.84141 12.309 6.62557C12.309 3.40968 9.65467 0.802734 6.38036 0.802734C3.10601 0.802734 0.45166 3.40968 0.45166 6.62557C0.45166 9.84141 3.10601 12.4484 6.38036 12.4484Z" fill="#545454"/>
</svg>
