<svg width="56" height="42" viewBox="0 0 56 42" fill="none" xmlns="http://www.w3.org/2000/svg">
<path fill-rule="evenodd" clip-rule="evenodd" d="M50.747 22.3364C50.4491 23.5854 50.1516 24.775 49.9136 25.9051L52.2943 33.0426L55.865 22.3364H50.747ZM11.5287 1.34019C10.279 0.745417 8.85067 0.447984 7.42241 0.507471C6.35121 0.507471 5.22047 0.68593 4.20877 1.0428C3.37565 1.34019 2.60198 1.87552 2.00688 2.52979C1.53078 3.06507 1.17371 3.77887 1.05468 4.49261C0.93564 5.50375 0.876144 6.51489 0.876144 7.52602V12.9981C0.816648 14.4256 0.99518 15.7936 1.41174 17.1617C1.82835 18.1134 2.60198 18.8866 3.55418 19.3029C4.86341 19.8382 6.23217 20.1357 7.60094 20.0762C8.96971 20.1357 10.3385 19.7788 11.5882 19.184C12.5404 18.7082 13.2545 17.9944 13.6712 17.0427C14.0282 15.6747 14.2067 14.3067 14.1472 12.8792V12.1654H8.55315V14.5446C8.61264 15.1989 8.55315 15.8531 8.37461 16.5074C8.19608 16.8048 7.89851 16.9832 7.54145 16.9238C7.18438 16.9832 6.88681 16.8048 6.70828 16.5074C6.52974 15.9126 6.47025 15.3178 6.52974 14.723V5.9796C6.47025 5.38478 6.52974 4.73052 6.70828 4.13574C6.82731 3.83831 7.12484 3.71938 7.60094 3.71938C7.89851 3.65989 8.19608 3.83831 8.37461 4.07625C8.55315 4.67103 8.61264 5.26585 8.55315 5.86062V9.13197H14.1472V7.34761C14.2067 6.03904 14.0877 4.73052 13.6712 3.48143C13.2545 2.4703 12.4809 1.75655 11.5287 1.34019ZM35.0953 0.864344H29.5012V19.6598H38.4874V15.9126H35.0953V0.864344ZM45.4505 0.864344H39.8561V19.6598H48.8427V15.9126H45.4505V0.864344ZM17.1823 0.804858L14.3257 19.6598H19.6223L21.4671 4.90898L22.4788 12.9981H21.3481L20.991 16.1505H22.8954L23.312 19.6598H28.6085L25.3354 0.804858H17.1823ZM52.3538 8.18033C52.1749 7.94238 51.9964 7.76397 51.6989 7.64499C51.4014 7.52602 51.104 7.46658 50.8065 7.46658C50.5086 7.46658 50.2111 7.52602 49.9136 7.64499C49.6756 7.76397 49.4376 7.94238 49.3186 8.18033C49.1401 8.41823 49.0807 8.65613 49.0212 8.89407C49.0212 9.19146 48.9617 9.60782 48.9617 10.2621V11.3922C48.9617 12.0465 48.9617 12.5223 49.0212 12.8197C49.0807 13.0576 49.1401 13.355 49.3186 13.5334C49.4971 13.7714 49.6756 13.9498 49.9731 14.0688C50.2706 14.1877 50.5685 14.2472 50.866 14.2472C51.1635 14.2472 51.4609 14.1877 51.7584 14.0688C51.9964 13.9498 52.2344 13.7714 52.3538 13.5334C52.5323 13.2955 52.5918 13.0576 52.6513 12.8197C52.6513 12.5223 52.7108 12.1059 52.7108 11.4517V10.3811C52.7108 9.72679 52.7108 9.25095 52.6513 8.95356C52.5918 8.65613 52.4728 8.41823 52.3538 8.18033ZM51.0445 12.2844C51.0445 12.5223 51.0445 12.7602 50.985 12.9981C50.985 13.1171 50.866 13.1766 50.8065 13.1766C50.6875 13.1766 50.628 13.1171 50.628 13.0576C50.5685 12.8197 50.5685 12.5818 50.5685 12.4033V9.36992C50.5685 9.19146 50.5685 8.95356 50.628 8.7751C50.6875 8.71562 50.747 8.65613 50.8065 8.65613C50.866 8.65613 50.985 8.71562 50.985 8.7751C51.0445 8.95356 51.0445 9.19146 51.0445 9.36992V12.2844ZM49.5566 27.6301L49.2591 26.6784L47.8308 22.3364H42.7128L46.6404 34.4109V41.2507H51.8179V34.4109L49.5566 27.6301ZM53.1868 14.1283H54.6746V11.3922H55.6266V10.1431H54.6746V8.89407H55.746V7.64499H53.1868V14.1283ZM12.8975 23.7044C12.3024 23.1691 11.5287 22.7528 10.6955 22.6338C8.85067 22.3364 7.00585 22.2769 5.22047 22.3364H0.99518V41.1316H8.07704C9.08875 41.1316 10.1004 41.0726 11.1121 40.9535C11.7072 40.8344 12.3024 40.5963 12.7784 40.2991C13.2545 40.0019 13.5521 39.5261 13.7306 38.9908C13.9687 37.8606 14.0877 36.7304 14.0282 35.6002V28.9386C14.0877 27.749 14.0282 26.5594 13.8497 25.3698C13.6711 24.775 13.3736 24.1803 12.8975 23.7044ZM8.37461 35.1839C8.37461 36.4332 8.25558 37.2062 8.07704 37.5038C7.89851 37.801 7.36291 37.9201 6.58924 37.9201V25.5483C7.00585 25.4888 7.42241 25.5483 7.83902 25.7267C8.07704 25.8456 8.19608 26.0241 8.25558 26.262C8.31507 26.7973 8.37461 27.3326 8.37461 27.9275V35.1839ZM29.3822 26.0836H32.7148V41.1316H38.3684V26.0836H41.7009V22.3364H29.3822V26.0836ZM22.5978 36.195C22.6574 36.7899 22.5978 37.3848 22.4788 37.9796C22.3598 38.2173 22.0622 38.3959 21.7647 38.3364C21.5266 38.3364 21.2886 38.2173 21.1696 37.9796C21.0505 37.4443 20.991 36.909 21.0505 36.4332V22.3364H15.4565V33.4588C15.4565 34.8272 15.4565 36.2546 15.5755 37.6224C15.6945 38.3364 15.9921 38.9908 16.4086 39.5261C17.0038 40.18 17.7774 40.7154 18.6106 40.9535C19.6818 41.3698 20.872 41.5484 22.0027 41.4888C23.0144 41.4888 24.0261 41.3698 25.0378 41.013C25.8115 40.7154 26.5256 40.2396 27.1207 39.6447C27.5968 39.1689 27.8944 38.515 28.0729 37.8606C28.1919 36.8494 28.2514 35.8383 28.2514 34.8272V22.3364H22.6574L22.5978 36.195Z" fill="#545454"/>
</svg>
