<svg width="52" height="52" viewBox="0 0 52 52" fill="none" xmlns="http://www.w3.org/2000/svg">
<path d="M51.1039 4.95236V2.47618C51.1039 1.79277 50.5613 1.23807 49.8891 1.23807H45.0323C44.5515 1.23807 44.1654 1.27028 43.818 1.3619V1.23807C43.818 0.554655 43.2754 0 42.604 0H35.3181C33.2126 0 32.4512 1.21827 32.0044 2.47618H31.0184C30.7354 2.09111 30.4611 1.59219 30.4611 1.23807C30.4611 0.554655 29.9182 0 29.2468 0H20.7468C20.1263 0 19.6054 0.486558 19.5386 1.11429C19.5106 1.37426 18.9946 2.47618 18.1919 2.47618H14.8648C14.7859 2.38086 14.6717 2.20379 14.5734 1.97721C14.3791 1.52781 13.942 1.23807 13.4611 1.23807H1.31829C0.646824 1.23807 0.104004 1.79277 0.104004 2.47618V12.3809C0.104004 15.8761 1.10579 20.301 1.31707 21.1937L1.30738 23.0694L0.484071 23.863C0.241212 24.0958 0.104004 24.4214 0.104004 24.7619V29.7142C0.104004 30.0436 0.231515 30.3581 0.459806 30.5896L1.31829 31.4649V36.942L0.167145 40.4657C0.0930996 40.6898 0.0845764 40.9287 0.141662 41.1578L1.26971 45.761L0.168364 49.1336C0.0432892 49.5112 0.106436 49.9271 0.334721 50.2492C0.561793 50.5709 0.928468 50.7617 1.31829 50.7617H18.3182C18.6412 50.7617 18.9496 50.6314 19.1768 50.3988L19.286 50.2874C19.9308 51.1862 20.8281 52 21.9611 52H25.6039C26.4976 52 27.2796 51.6025 27.9681 51.2508C28.4392 51.0091 28.9262 50.7617 29.2468 50.7617H35.3181C35.6412 50.7617 35.9496 50.6314 36.1767 50.3988L36.4717 50.0981C36.5483 50.1973 36.6212 50.295 36.6928 50.3892C37.2888 51.1816 37.9047 52 38.9609 52H45.0323C45.7038 52 46.2467 51.4463 46.2467 50.7617V49.8716L49.5957 50.723C49.9587 50.8187 50.344 50.7317 50.6399 50.4956C50.9349 50.2604 51.106 49.8975 51.1039 49.5138C51.1024 49.3922 51.0273 37.2442 51.1039 30.9672C51.1075 30.6329 50.9785 30.3123 50.7481 30.0757L49.8891 29.2017V23.5238C49.8891 23.1957 49.7622 22.88 49.5338 22.6484L48.9388 22.0418L49.6734 20.5437L50.7481 19.448C50.976 19.2152 51.1039 18.8995 51.1039 18.5714L51.0857 12.3686C51.0857 12.2683 51.0735 12.1692 51.0501 12.0714L49.9622 7.57466L50.976 5.50706C51.0603 5.33494 51.1039 5.14428 51.1039 4.95236ZM36.6405 9.90477L40.3367 12.3809L39.1042 19.8095L29.2468 12.3809L36.6405 9.90477ZM13.4611 42.095L8.60398 38.3807L11.0325 29.7142L20.7468 39.6189L13.4611 42.095ZM39.2038 40.8569H33.5368L8.60398 11.0512L13.1369 9.90477L42.604 32.8317L39.2038 40.8569Z" fill="#545454"/>
</svg>
