<svg width="60" height="56" viewBox="0 0 60 56" fill="none" xmlns="http://www.w3.org/2000/svg">
<path d="M56.2965 9.00744C55.5862 9.00604 54.5894 8.9338 53.8863 9.04017C52.8385 9.22023 51.7714 8.92287 50.7155 8.89149C50.7003 8.64048 50.8966 8.19176 50.8871 7.94209C50.689 7.91755 50.4922 7.90393 50.3013 7.86027C50.1234 7.23687 50.1921 6.57939 50.171 5.93968C50.0699 5.93833 49.8663 5.93419 49.7653 5.93144C49.7329 6.65987 49.7356 7.38829 49.7271 8.11672C49.4674 7.91071 49.2863 7.51108 48.9085 7.53972L38.5947 7.53832C38.05 7.59559 37.6245 7.23412 37.185 6.97902C37.143 6.6435 37.0882 6.31067 37.0208 5.98053C36.7119 6.39389 36.6838 6.92315 36.5701 7.41009C35.7502 7.5683 34.9401 8.01439 34.1046 8.08534C34.0317 7.6161 33.9544 7.14821 33.9011 6.67489C34.3433 6.46759 34.8404 6.32838 35.2068 5.99012C35.6379 4.76522 35.1394 3.49117 34.8544 2.29356C33.9713 1.66876 32.9927 1.11636 31.9747 0.718018H30.5117C29.5065 1.03723 28.5054 1.55965 27.934 2.47906C27.0494 3.82809 26.9273 5.56044 27.4833 7.05821C27.4047 7.10999 27.2474 7.21641 27.1688 7.271C26.2112 6.53439 24.8872 6.8986 23.9704 7.51651C22.6394 8.4973 21.9289 10.1014 21.6341 11.6837C21.3294 13.0245 21.4656 14.4009 21.6285 15.7486C21.0781 15.8809 20.5137 15.9069 19.9535 15.9478C19.719 15.9573 19.4228 16.0487 19.3975 16.3201C19.229 17.3869 19.354 18.4835 19.1279 19.5434C18.9819 20.2227 18.8878 20.9129 18.9117 21.6086C19.5253 21.7436 20.143 21.8732 20.7594 22.0001C20.3382 22.1883 19.8538 22.322 19.5533 22.6944C19.2894 24.4145 19.9184 26.11 19.8622 27.8356C19.5533 28.0975 19.1672 28.3334 19.0661 28.7535C18.8766 29.2487 19.1784 29.752 19.1041 30.2581C19.0324 30.8092 19.1602 31.3575 19.3413 31.8732C19.5112 32.3055 19.3694 32.7693 19.302 33.2099C19.1026 34.3503 18.8738 35.4934 18.8247 36.6515C18.7853 37.2625 19.003 37.8928 18.8022 38.4861C18.1479 39.9427 17.0486 41.1584 16.4672 42.6521C16.2104 43.3395 16.3409 44.1252 15.9716 44.777C15.5771 45.5111 15.0324 46.2353 15.0815 47.1153C15.038 47.7111 15.5266 48.2458 15.3202 48.8421C15.0141 50.0572 14.7066 51.2743 14.3668 52.4828C14.1366 53.2859 14.0931 54.166 14.35 54.9681C14.694 55.1436 15.0815 55.2028 15.4578 55.2819H16.9053C17.3729 55.2394 17.8362 55.1629 18.3037 55.0989C18.4385 54.4691 18.2799 53.8533 18.0609 53.2671C17.7885 51.7884 18.0314 50.2171 18.791 48.9128C19.0535 48.5745 19.5309 48.4435 19.7176 48.0398C19.997 47.4632 20.1304 46.8315 20.3859 46.2449C20.7453 45.4099 21.2368 44.6259 21.4614 43.7377C21.5864 43.2523 21.4431 42.7542 21.4881 42.2632C21.6243 41.7188 21.8756 41.1854 22.2884 40.7926C22.8416 40.2893 23.0578 39.5189 23.6629 39.0618C24.0757 38.7616 24.0954 38.2243 24.1824 37.7645C24.2638 37.1562 24.4674 36.5737 24.6935 36.0049C25.0149 35.2178 25.2369 34.3544 25.856 33.7338C26.2491 33.3341 26.4457 32.8021 26.5889 32.2728C26.8346 32.7353 27.0312 33.2482 27.4257 33.611C27.868 33.8265 28.5124 33.7106 28.7806 34.203C29.5514 35.3433 29.609 35.9926 30.3826 37.133C30.7518 37.8409 31.642 37.6677 32.3005 37.6868C32.6796 38.1929 33.1022 38.3388 32.9758 38.9527C32.952 39.6442 32.3511 40.1776 32.4353 40.8855C32.5012 42.326 32.6108 43.7787 32.9954 45.1742C33.1303 45.8245 33.4784 46.4221 33.4897 47.0987C33.5065 47.8818 33.3535 49.1636 33.192 49.9371C32.7989 50.9728 32.5307 52.0554 32.4802 53.1648C33.4097 53.6966 34.4823 53.1562 35.4539 53.4716C36.5196 53.814 37.6372 53.9367 38.7534 53.9162C39.4399 53.9044 40.1279 53.8387 40.8033 53.7359C40.8074 53.3586 40.9336 52.9478 40.7569 52.5947C40.1953 51.9493 39.256 51.9466 38.5737 51.5009C38.0219 51.0175 37.5712 50.4281 37.1106 49.8623C36.7217 49.4177 37.2427 48.8024 37.2272 48.2419C37.2328 47.3907 37.2286 46.5138 37.5516 45.7115C37.7902 45.0733 37.7102 44.3828 37.581 43.7324C37.4069 42.9315 37.7017 42.1418 37.7776 41.3491C37.8871 40.2688 37.9657 39.1858 38.0359 38.1028C38.0865 37.4849 37.8688 36.8956 37.7144 36.3077C37.6231 35.7539 37.0812 35.4416 36.9225 34.9164C35.9931 32.4256 35.1422 30.3754 33.3114 28.3893C32.6079 27.7087 32.2527 26.5711 32.6796 25.6558C33.0755 25.7608 33.4686 25.8768 33.8702 25.975C34.2984 25.4144 34.7168 24.795 34.7856 24.0749C34.8558 23.3328 34.8768 22.5866 34.9442 21.8446C34.9751 21.0357 35.1549 20.2023 34.9401 19.4083C34.7997 18.8655 34.2479 18.6309 33.821 18.3553C33.9236 17.9775 34.0274 17.6023 34.1187 17.2218C35.5269 17.8888 36.8327 18.8559 38.4094 19.0933C38.832 19.156 39.2841 19.3525 39.7039 19.1642C40.2824 18.8941 40.7288 18.4222 41.2342 18.0429C42.1499 17.3432 42.0231 16.0664 42.3421 15.0679C42.6539 14.9506 42.9712 14.8429 43.287 14.7283C43.079 13.843 42.7168 12.9482 42.8404 12.0247C43.2196 11.5214 43.6985 11.22 44.093 10.7275C44.3752 10.3538 44.8635 10.2569 45.3088 10.2678C46.6495 10.261 47.9919 10.2842 49.3339 10.2692C49.3775 10.0796 49.219 10.4588 49.2666 10.2692C50.6625 10.3469 52.0595 10.0523 53.4574 10.2215C54.3295 10.3674 55.5003 10.3074 56.3763 10.2446C56.3303 9.99366 56.3076 9.25705 56.2965 9.00744ZM39.0314 13.7775C38.766 13.3165 38.3687 12.8827 38.29 12.3508C38.3322 12.2948 38.4192 12.1871 38.4613 12.1325C39.0314 12.0738 39.6056 12.1107 40.177 12.138C39.8078 12.6917 39.4175 13.2346 39.0314 13.7775ZM38.9485 11.9933C39.3276 11.8051 39.4498 11.4164 39.4989 11.0249C39.8036 11.0099 40.1097 11.0003 40.4185 10.9935C40.4298 11.2813 40.4396 11.5664 40.4508 11.8542C39.9566 11.962 39.4498 11.9606 38.9485 11.9933Z" fill="#545454"/>
<path d="M56.296 26.6351H46.4679V23.907H59.1041C58.9207 22.8253 58.1771 21.8595 57.146 21.4408C56.4534 21.1325 55.6799 21.1816 54.9413 21.1816L46.4679 21.1788C45.0639 21.1788 43.6599 22.5429 43.6599 23.907V26.6351C43.7372 27.9964 45.0639 29.3632 46.4679 29.3632H56.296V32.0913H43.6599C43.8482 32.9602 44.3199 33.7787 45.0891 34.2643C45.7631 34.7363 46.6099 34.8426 47.4155 34.8194H56.296C57.7001 34.8194 59.1041 33.4554 59.1041 32.0913V29.3632C59.1041 27.9991 57.8685 26.661 56.296 26.6351Z" fill="#545454"/>
<path d="M2.94309 23.9068H14.1753C14.1753 22.3996 12.9186 21.1787 11.3672 21.1787H2.94309C1.39164 21.1787 0.13501 22.3996 0.13501 23.9068V32.0912C0.13501 33.5984 1.39164 34.8193 2.94309 34.8193H11.3672C12.9186 34.8193 14.1753 33.5984 14.1753 32.0912H2.94309V23.9068Z" fill="#545454"/>
</svg>
